<svg aria-hidden="true" role="img" xmlns="http://www.w3.org/2000/svg" xmlns:xlink="http://www.w3.org/1999/xlink">
    <use xlink:href="#aurea-logo"></use>
    <symbol id="aurea-logo" viewBox="0 0 219.6 123.66">
        <path fill="currentColor" d="M2 2h128.04v57.73h-6.52V8.51H8.51v106.64h121.41v6.51H2zM67 105.42l-3.52-9.25H41.49L38 105.42h-9.56l18.79-47.83H57.7l18.79 47.83zM52.46 66l-8.6 22.8h17.21zM104.59 105.42v-4.59a16.58 16.58 0 01-12.19 5.45c-7.46 0-11.18-4-11.18-11v-24.5h7.52v21.73c0 5.38 2.73 7.1 7 7.1a11.46 11.46 0 008.82-4.52V70.78h7.53v34.64zM122.59 105.42V70.78h7.53v5c2.65-3.3 6.81-5.88 11.26-5.88v7.46a10.67 10.67 0 00-2.3-.22c-3.23 0-7.46 2.15-9 4.67v23.59zM146.11 88.06c0-10 7.31-18.14 17.56-18.14 10.4 0 17 7.89 17 18.79v1.86H154c.58 5.17 4.45 9.54 11 9.54a14.55 14.55 0 009.89-3.87l3.44 5a20.46 20.46 0 01-14.05 5.09c-10.5-.05-18.17-7.33-18.17-18.27zm17.49-12c-6.38 0-9.39 5-9.68 9.1h19.51a9.33 9.33 0 00-9.83-9.07zM210.07 105.42v-3.8c-2.58 3-6.67 4.66-11.26 4.66-5.59 0-12-3.87-12-11.48 0-8 6.31-11.33 12-11.33 4.73 0 8.68 1.51 11.26 4.45v-5.16c0-4-3.37-6.46-8.1-6.46a13.88 13.88 0 00-10.26 4.45l-3.16-5.24a20.31 20.31 0 0114.56-5.59c7.75 0 14.49 3.23 14.49 12.48v23zm0-7.89v-5.31c-1.79-2.36-5-3.58-8.25-3.58-4.23 0-7.46 2.51-7.46 6.24 0 3.73 3.23 6.23 7.46 6.23 3.23 0 6.46-1.21 8.25-3.58z"></path>
    </symbol>
    <symbol id="search-icon" viewBox="0 0 250 250">
        <path fill="currentColor" d="M241.78 227.64l-52.01-52.01a103.28 103.28 0 0023.69-65.92c0-57.2-46.54-103.75-103.75-103.75S5.96 52.5 5.96 109.7c0 57.2 46.54 103.75 103.75 103.75 25 0 47.98-8.9 65.92-23.7l52 52.02 14.15-14.14zm-132.07-34.18c-46.18 0-83.75-37.57-83.75-83.75s37.57-83.75 83.75-83.75 83.75 37.57 83.75 83.75-37.57 83.75-83.75 83.75z"></path>
    </symbol>
    <symbol id="lock" viewBox="0 0 11 13">
        <path fill="currentColor" d="M9.9 5.4h-.6V3.7a3.6 3.6 0 00-7.1 0v1.7h-.6C1 5.4.5 6 .5 6.5V11c0 .7.5 1.2 1.1 1.2H10c.6 0 1.1-.5 1.1-1.2V6.5c0-.6-.5-1-1.1-1zm-2.5 0H4.1V3.7a1.7 1.7 0 013.3 0v1.7z"></path>
    </symbol>
    <symbol id="linkedin" viewBox="0 0 448 512">
		<path fill="currentColor" d="M100.28 448H7.4V148.9h92.88zM53.79 108.1C24.09 108.1 0 83.5 0 53.8a53.79 53.79 0 0 1 107.58 0c0 29.7-24.1 54.3-53.79 54.3zM447.9 448h-92.68V302.4c0-34.7-.7-79.2-48.29-79.2-48.29 0-55.69 37.7-55.69 76.7V448h-92.78V148.9h89.08v40.8h1.3c12.4-23.5 42.69-48.3 87.88-48.3 94 0 111.28 61.9 111.28 142.3V448z"></path>
	</symbol>
	<symbol id="twitter" viewBox="0 0 512 512">
		<path fill="currentColor" d="M459.37 151.716c.325 4.548.325 9.097.325 13.645 0 138.72-105.583 298.558-298.558 298.558-59.452 0-114.68-17.219-161.137-47.106 8.447.974 16.568 1.299 25.34 1.299 49.055 0 94.213-16.568 130.274-44.832-46.132-.975-84.792-31.188-98.112-72.772 6.498.974 12.995 1.624 19.818 1.624 9.421 0 18.843-1.3 27.614-3.573-48.081-9.747-84.143-51.98-84.143-102.985v-1.299c13.969 7.797 30.214 12.67 47.431 13.319-28.264-18.843-46.781-51.005-46.781-87.391 0-19.492 5.197-37.36 14.294-52.954 51.655 63.675 129.3 105.258 216.365 109.807-1.624-7.797-2.599-15.918-2.599-24.04 0-57.828 46.782-104.934 104.934-104.934 30.213 0 57.502 12.67 76.67 33.137 23.715-4.548 46.456-13.32 66.599-25.34-7.798 24.366-24.366 44.833-46.132 57.827 21.117-2.273 41.584-8.122 60.426-16.243-14.292 20.791-32.161 39.308-52.628 54.253z"></path>
	</symbol>
</svg>