<svg xmlns="http://www.w3.org/2000/svg" width="79.828" height="69.453" viewBox="0 0 79.828 69.453"><g transform="translate(-230.2 -249.1)"><path d="M401.138,295.147a1.04,1.04,0,0,0,1.779-.739V292.82l.246-.027a7.1,7.1,0,0,0,2.957-.931,4.088,4.088,0,0,0,1.971-3.5,4.325,4.325,0,0,0-1.068-2.82,6.674,6.674,0,0,0-2.108-1.588,11.976,11.976,0,0,0-2.874-.958,7.854,7.854,0,0,1-2.3-.712,5.274,5.274,0,0,1-1.478-1.068,2.179,2.179,0,0,1-.548-1.506,1.714,1.714,0,0,1,.986-1.725,6.434,6.434,0,0,1,3.176-.684,9.711,9.711,0,0,1,4.627,1.122,1.008,1.008,0,0,0,.821.192,1.079,1.079,0,0,0,.684-.465.97.97,0,0,0,.11-.821,1,1,0,0,0-.52-.63,11.909,11.909,0,0,0-4.49-1.4l-.246-.027v-1.615a1.053,1.053,0,0,0-.329-.794,1.087,1.087,0,0,0-.794-.274c-.027,0-.055.027-.109.027a1.055,1.055,0,0,0-.821,1.04v1.588l-.246.027a7.1,7.1,0,0,0-2.957.931,4.149,4.149,0,0,0-1.971,3.5,4.325,4.325,0,0,0,1.068,2.82,6.673,6.673,0,0,0,2.108,1.588,11.972,11.972,0,0,0,2.874.958,7.854,7.854,0,0,1,2.3.712,5.279,5.279,0,0,1,1.478,1.068,2.179,2.179,0,0,1,.548,1.506,1.714,1.714,0,0,1-.986,1.725,6.434,6.434,0,0,1-3.176.684,10.021,10.021,0,0,1-4.654-1.122,1.1,1.1,0,0,0-.63-.219.534.534,0,0,0-.192.027,1.079,1.079,0,0,0-.684.465.97.97,0,0,0-.109.821,1,1,0,0,0,.52.63,11.91,11.91,0,0,0,4.49,1.4l.246.027v1.615A1.058,1.058,0,0,0,401.138,295.147Z" transform="translate(-120.074 -17.056)" fill="#44e2cf"/><path d="M371.177,249.1a17.877,17.877,0,1,0,17.877,17.876A17.9,17.9,0,0,0,371.177,249.1Zm0,33.727A15.823,15.823,0,1,1,387,267,15.831,15.831,0,0,1,371.177,282.827Z" transform="translate(-89.4 0)" fill="#44e2cf"/><path d="M238.8,388.757h.055c6.6,1.259,11.991,3.942,17.219,6.543l1.04.52c5.913,2.957,10.9,5.2,16.645,5.2a.875.875,0,0,0,.52-.137l33.618-19.574a1.162,1.162,0,0,0,.192-.137,6.2,6.2,0,0,0-4.271-10.7.6.6,0,0,0-.219.027l-17.959,3.833-.109-.082a5.3,5.3,0,0,0-3.285-1.2c-7.09,0-13.359-2.655-18.862-5.01l-.548-.219c-5.776-2.464-11.772-5.01-18.643-5.147-.465,0-.958-.027-1.478,0h-.027a32.078,32.078,0,0,0-11.881,2.683,1.028,1.028,0,0,0-.6.931v20.751a1.04,1.04,0,1,0,2.081,0V367.021l.164-.082a29.648,29.648,0,0,1,11.744-2.245c6.461.11,12.1,2.519,18.1,5.065l.328.137c5.694,2.409,12.155,5.174,19.711,5.174a4.175,4.175,0,0,1,0,8.322H264.995a1.04,1.04,0,1,0,0,2.081h17.356a6.13,6.13,0,0,0,5.886-6.214,6.426,6.426,0,0,0-.821-2.875l-.164-.328,16.7-3.559a4.153,4.153,0,0,1,4.134,4.161,4.1,4.1,0,0,1-1.259,2.957l-.082.082-33.125,19.245h-.082c-5.256-.082-10.074-2.3-15.385-4.928l-.986-.493c-5.092-2.546-10.841-5.42-17.849-6.734h-.055a.808.808,0,0,0-.356-.055,1.024,1.024,0,0,0-.493.137.989.989,0,0,0-.274,1.506A.655.655,0,0,0,238.8,388.757Z" transform="translate(0 -82.469)" fill="#44e2cf"/></g></svg>