<svg xmlns="http://www.w3.org/2000/svg" width="66.547" height="78.515" viewBox="0 0 66.547 78.515"><g transform="translate(-198.669 -167)"><path d="M265,233.536l-8.615-14.921.319-.394a31.294,31.294,0,0,0,6.832-19.632,31.588,31.588,0,1,0-63.176,0A31.294,31.294,0,0,0,207.2,218.22l.319.394-8.652,14.978a1.106,1.106,0,0,0-.019,1.22,1.094,1.094,0,0,0,1.089.507l11.956-1.708,4.486,11.167a1.112,1.112,0,0,0,.957.732,1.1,1.1,0,0,0,1.051-.544l8.728-15.128.507.075a31.805,31.805,0,0,0,8.652,0l.507-.075,8.728,15.128a1.121,1.121,0,0,0,2.008-.169L252,233.611l11.956,1.708a1.112,1.112,0,0,0,1.07-1.727Zm-47.391,8.3-3.96-9.891a1.135,1.135,0,0,0-1.182-.694l-10.567,1.52,7.17-12.406.694.676a31.557,31.557,0,0,0,14.114,8.071l.957.244Zm14.339-14.077h-.6a30,30,0,1,1,.6,0Zm19.5,3.491a1.1,1.1,0,0,0-1.182.676l-3.96,9.91-7.226-12.463.957-.244a31.557,31.557,0,0,0,14.114-8.071l.694-.676,7.17,12.406Z" transform="translate(0 0)" fill="#44e2cf"/><path d="M309.148,237.233a2.921,2.921,0,0,0-2.4-2.008l-10.267-1.483-4.6-9.291a2.976,2.976,0,0,0-5.33,0l-4.542,9.272-10.248,1.483a2.981,2.981,0,0,0-2.4,2.008,2.946,2.946,0,0,0,.751,3.041l7.432,7.226-1.745,10.21a2.924,2.924,0,0,0,.657,2.4,3.047,3.047,0,0,0,3.66.732L289.291,256l9.178,4.824a2.983,2.983,0,0,0,4.317-3.134l-1.746-10.21,7.414-7.226A2.969,2.969,0,0,0,309.148,237.233Zm-10.079,9.122a1.067,1.067,0,0,0-.319.957l2.121,12.387-11.13-5.856a1.04,1.04,0,0,0-.995,0l-11.13,5.875,2.121-12.387a1.067,1.067,0,0,0-.319-.957l-9.009-8.784,12.444-1.8a1.051,1.051,0,0,0,.807-.582l5.574-11.28,5.556,11.28a1.039,1.039,0,0,0,.807.582l12.444,1.8Z" transform="translate(-57.301 -45.327)" fill="#44e2cf"/></g></svg>